<svg width="260" height="230" viewBox="0 0 260 230" fill="none" xmlns="http://www.w3.org/2000/svg">
<g clip-path="url(#clip0_521_6356)">
<path d="M166.975 207.678L166.337 198.772C162.158 196.676 157.533 195.635 152.862 195.739C159.433 200.837 158.907 211.026 163.457 217.999C164.893 220.163 166.796 221.975 169.025 223.3C171.253 224.626 173.75 225.431 176.331 225.656L181.8 228.814C182.425 224.664 182.147 220.428 180.984 216.396C179.821 212.364 177.802 208.634 175.064 205.461C173.51 203.697 171.742 202.135 169.8 200.815C168.604 204.259 166.975 207.678 166.975 207.678Z" fill="#F2F2F2"/>
<path d="M134.4 230H259.599C259.705 230 259.807 229.958 259.883 229.882C259.958 229.807 260 229.704 260 229.597C260 229.491 259.958 229.388 259.883 229.313C259.807 229.237 259.705 229.195 259.599 229.195H134.4C134.294 229.195 134.192 229.237 134.116 229.313C134.041 229.388 133.999 229.491 133.999 229.597C133.999 229.704 134.041 229.807 134.116 229.882C134.192 229.958 134.294 230 134.4 230Z" fill="#CCCCCC"/>
<path d="M54.6873 133.899V134.072H54.807C54.7636 134.017 54.7237 133.959 54.6873 133.899ZM55.6081 60.8389C47.251 71.7472 42.7273 85.1256 42.7432 98.8859C42.7451 100.981 42.8474 103.047 43.05 105.084C43.0813 105.433 43.1176 105.783 43.1646 106.128C44.3258 116.254 47.9506 125.939 53.7198 134.328C53.9433 134.656 54.1722 134.98 54.4013 135.304C56.8848 138.799 59.7201 142.028 62.8623 144.94C88.1583 168.383 127.6 166.807 150.958 141.418C151.317 141.037 151.661 140.65 151.999 140.264C161.559 129.397 167.059 115.532 167.558 101.043C168.056 86.5543 163.521 72.342 154.73 60.8389C154.464 60.4891 154.194 60.1393 153.913 59.7947C153.298 59.0167 152.659 58.2544 151.999 57.5078C151.661 57.1214 151.317 56.7351 150.958 56.3539C145.126 50.0054 138.046 44.9395 130.165 41.476C122.284 38.0125 113.773 36.2267 105.169 36.2313C104.571 36.2313 103.978 36.2418 103.385 36.2574C102.989 36.2679 102.594 36.2835 102.199 36.3044C93.343 36.7263 84.6791 39.04 76.7855 43.0908C68.8919 47.1417 61.9504 52.8364 56.4247 59.7947C56.1438 60.1393 55.8735 60.4891 55.6081 60.8389L55.6081 60.8389ZM54.807 134.072C54.7636 134.017 54.7237 133.959 54.6873 133.899V134.072H54.807Z" fill="white"/>
<path d="M54.2505 133.257L54.4273 132.897L67.6719 106.128V106.123L68.1871 105.084V105.078L90.0671 60.8389V60.8337L90.5822 59.7947L90.5873 59.7895L101.668 37.3748L102.199 36.3044C102.594 36.2836 102.989 36.2679 103.385 36.2574L102.859 37.3226L91.7476 59.7895V59.7947L91.2325 60.8337V60.8389L68.7799 106.232L68.7749 106.237L55.5302 133.027L55.01 134.072L54.9266 134.244L54.4013 135.304C54.1722 134.98 53.9434 134.656 53.7198 134.328L54.2505 133.257Z" fill="#3F3D56"/>
<path d="M68.5563 105.083V106.128H43.1646C43.1176 105.783 43.0813 105.433 43.05 105.083H68.5563Z" fill="#3F3D56"/>
<path d="M108.016 113.229V112.185H133.408C133.455 112.53 133.492 112.879 133.523 113.229H108.016Z" fill="#3F3D56"/>
<path d="M129.255 109.591H130.295V135.076C129.952 135.123 129.603 135.159 129.255 135.191V109.591Z" fill="#3F3D56"/>
<path d="M154.73 60.8389C154.464 60.4891 154.194 60.1393 153.913 59.7947H151.999V57.5078C151.661 57.1214 151.317 56.7351 150.958 56.3539V59.7947H56.4248C56.1439 60.1393 55.8736 60.4891 55.6082 60.8389H150.958V141.418C151.317 141.037 151.661 140.65 151.999 140.264V60.8389H154.73Z" fill="#3F3D56"/>
<path d="M151.478 133.027H54.6862V134.071H151.478V133.027Z" fill="#3F3D56"/>
<path d="M54.6873 133.899V134.072H54.807C54.7636 134.017 54.7237 133.959 54.6873 133.899ZM55.6081 60.8389C47.251 71.7472 42.7273 85.1256 42.7432 98.8859C42.7451 100.981 42.8474 103.047 43.05 105.084C43.0813 105.433 43.1176 105.783 43.1646 106.128C44.3258 116.254 47.9506 125.939 53.7198 134.328C53.9433 134.656 54.1722 134.98 54.4013 135.304C56.8848 138.799 59.7201 142.028 62.8623 144.94C88.1583 168.383 127.6 166.807 150.958 141.418C151.317 141.037 151.661 140.65 151.999 140.264C161.559 129.397 167.059 115.532 167.558 101.043C168.056 86.5543 163.521 72.342 154.73 60.8389C154.464 60.4891 154.194 60.1393 153.913 59.7947C153.298 59.0167 152.659 58.2544 151.999 57.5078C151.661 57.1214 151.317 56.7351 150.958 56.3539C145.126 50.0054 138.046 44.9395 130.165 41.476C122.284 38.0125 113.773 36.2267 105.169 36.2313C104.571 36.2313 103.978 36.2418 103.385 36.2574C102.989 36.2679 102.594 36.2835 102.199 36.3044C93.343 36.7263 84.6791 39.04 76.7855 43.0908C68.8919 47.1417 61.9504 52.8364 56.4247 59.7947C56.1438 60.1393 55.8735 60.4891 55.6081 60.8389L55.6081 60.8389ZM44.2101 106.128C44.1634 105.783 44.1271 105.433 44.0905 105.083C42.5048 89.2252 47.1028 73.367 56.9191 60.8389C57.1947 60.4891 57.4705 60.1393 57.7565 59.7947C63.133 53.2127 69.8114 47.8219 77.3697 43.9628C84.928 40.1038 93.2017 37.8605 101.668 37.3748C102.063 37.3539 102.459 37.333 102.859 37.3225C103.624 37.2912 104.394 37.2756 105.169 37.2756C113.82 37.2704 122.374 39.1058 130.266 42.6607C138.159 46.2157 145.211 51.4093 150.958 57.8994C151.317 58.2962 151.666 58.693 151.999 59.1002C152.202 59.33 152.394 59.5597 152.581 59.7947C152.867 60.1393 153.143 60.4891 153.419 60.8389C162.166 71.9848 166.803 85.8238 166.544 100.01C166.285 114.195 161.146 127.855 151.999 138.672C151.666 139.079 151.317 139.476 150.958 139.872C147.791 143.444 144.219 146.633 140.316 149.375C112.573 168.863 74.3432 162.088 54.9266 134.244C54.8849 134.187 54.8433 134.129 54.8069 134.072C54.7636 134.017 54.7236 133.959 54.6873 133.899C54.5365 133.685 54.3908 133.471 54.2504 133.257C48.7859 125.152 45.3425 115.848 44.2101 106.128L44.2101 106.128ZM54.807 134.072C54.7636 134.017 54.7236 133.959 54.6873 133.899V134.072H54.807Z" fill="#CCCCCC"/>
<path d="M177.065 166.182H114.784C114.023 166.181 113.293 165.877 112.754 165.336C112.216 164.796 111.913 164.063 111.912 163.299V132.841C111.913 132.076 112.216 131.344 112.754 130.803C113.293 130.263 114.023 129.959 114.784 129.958H177.065C177.827 129.959 178.557 130.263 179.095 130.803C179.634 131.344 179.937 132.076 179.938 132.841V163.299C179.937 164.063 179.634 164.796 179.095 165.336C178.557 165.877 177.827 166.181 177.065 166.182Z" fill="#CACACA"/>
<path d="M149.632 163.731C135.992 163.731 121.769 163.6 116.462 163.515C115.764 163.501 115.099 163.213 114.61 162.713C114.12 162.213 113.844 161.541 113.842 160.84V132.843C113.842 132.592 113.941 132.351 114.118 132.174C114.295 131.996 114.534 131.896 114.784 131.895H177.063C177.313 131.895 177.553 131.995 177.73 132.172C177.907 132.349 178.007 132.59 178.008 132.84V151.836C177.996 154.937 176.774 157.91 174.604 160.117C172.434 162.323 169.488 163.589 166.399 163.641C161.453 163.705 155.597 163.731 149.632 163.731Z" fill="#E4E4E4"/>
<path d="M170.635 149.397H119.96C119.632 149.397 119.311 149.295 119.043 149.105C118.774 148.914 118.571 148.646 118.46 148.335L112.724 132.185C112.639 131.944 112.612 131.686 112.647 131.432C112.681 131.179 112.776 130.937 112.922 130.728C113.069 130.519 113.264 130.348 113.49 130.23C113.716 130.112 113.968 130.05 114.223 130.05L177.567 129.961H177.57C177.833 129.961 178.093 130.027 178.325 130.152C178.557 130.278 178.754 130.459 178.899 130.68C179.044 130.901 179.133 131.154 179.156 131.418C179.179 131.681 179.137 131.946 179.034 132.189L178.947 132.152L179.034 132.189L172.099 148.428C171.977 148.716 171.773 148.961 171.512 149.134C171.252 149.306 170.947 149.398 170.635 149.397Z" fill="#CACACA"/>
<path d="M134.648 160.59H117.174C116.744 160.59 116.331 160.418 116.027 160.112C115.723 159.807 115.553 159.393 115.553 158.961C115.553 158.529 115.723 158.115 116.027 157.81C116.331 157.504 116.744 157.332 117.174 157.332H134.648C135.078 157.332 135.491 157.504 135.795 157.81C136.098 158.115 136.269 158.529 136.269 158.961C136.269 159.393 136.098 159.807 135.795 160.112C135.491 160.418 135.078 160.59 134.648 160.59Z" fill="#CACACA"/>
<path d="M145.83 153.38C148.022 153.38 149.799 151.597 149.799 149.397C149.799 147.198 148.022 145.415 145.83 145.415C143.639 145.415 141.862 147.198 141.862 149.397C141.862 151.597 143.639 153.38 145.83 153.38Z" fill="#3F3D56"/>
<path d="M20.0593 8.23527C29.8095 1.34366 41.888 -1.37823 53.6377 0.668369C65.3875 2.71497 75.8459 9.36242 82.7124 19.1484C97.011 39.5265 111.359 92.9632 101.231 123.919C71.0214 91.8932 24.6111 88.5653 9.18602 71.118C-7.29625 52.475 -0.24447 22.5863 20.0593 8.23527Z" fill="#3D2C42"/>
<path d="M46.5608 54.3804C54.6598 54.3804 61.2253 47.7908 61.2253 39.6622C61.2253 31.5335 54.6598 24.944 46.5608 24.944C38.4619 24.944 31.8964 31.5335 31.8964 39.6622C31.8964 47.7908 38.4619 54.3804 46.5608 54.3804Z" fill="white"/>
<path opacity="0.2" d="M30.8716 36.266C29.9006 37.9351 29.2666 39.7798 29.0059 41.6948C28.7453 43.6098 28.863 45.5576 29.3523 47.4269C29.8416 49.2962 30.693 51.0506 31.8578 52.5897C33.0227 54.1288 34.4781 55.4225 36.1411 56.3971C37.8041 57.3717 39.6421 58.0079 41.5501 58.2695C43.4581 58.5312 45.3988 58.4131 47.2613 57.9219C49.1238 57.4308 50.8717 56.5763 52.4052 55.4072C53.9387 54.2381 55.2277 52.7773 56.1987 51.1082C53.5812 53.4129 50.2319 54.7075 46.7503 54.7601C43.2687 54.8128 39.8821 53.6202 37.1965 51.3957C34.511 49.1712 32.7019 46.0601 32.093 42.6192C31.4841 39.1783 32.1151 35.6322 33.8732 32.6156C32.683 33.6619 31.6693 34.8946 30.8716 36.266Z" fill="#231F20"/>
<path opacity="0.2" d="M9.15843 71.1874C24.5835 88.6346 70.9939 91.9625 101.203 123.989C102.146 121.06 102.872 118.065 103.374 115.028C73.1802 85.9137 29.3536 82.2342 14.4501 65.3771C1.11129 50.2896 3.18769 27.838 15.2259 12.2161C-1.2843 27.5765 -5.946 54.1029 9.15843 71.1874Z" fill="#231F20"/>
<path d="M200.89 132.831L194.663 130.928C191.952 134.208 189.704 143.711 189.704 143.711L181.181 157.612C180.725 157.829 180.334 158.163 180.047 158.58C179.761 158.998 179.589 159.483 179.549 159.988C179.509 160.494 179.602 161 179.819 161.458C180.036 161.915 180.369 162.308 180.785 162.595C181.201 162.882 181.685 163.054 182.189 163.094C182.692 163.133 183.197 163.039 183.652 162.821C184.108 162.602 184.498 162.267 184.784 161.849C185.069 161.431 185.24 160.945 185.279 160.44L198.179 144.722L200.89 132.831Z" fill="#FFB6B6"/>
<path d="M200.771 134.349L201.922 124.887L199.342 120.563C198.833 119.716 198.097 119.029 197.219 118.579C196.341 118.129 195.355 117.935 194.373 118.019C193.042 118.141 191.807 118.765 190.917 119.766C190.028 120.767 189.55 122.07 189.581 123.411C189.678 127.478 190.316 132.62 192.807 134.026L192.832 134.04L200.771 134.349Z" fill="#0C3A30"/>
<path d="M218.364 219.844L214.63 221.653L205.899 208.057L211.411 205.387L218.364 219.844Z" fill="#FFB6B6"/>
<path d="M220.376 223.69L208.892 229.254L208.822 229.108C208.25 227.919 208.172 226.549 208.606 225.302C209.039 224.055 209.949 223.031 211.134 222.457L211.134 222.456L212.464 219.843L217.146 219.544L218.148 219.058L220.376 223.69Z" fill="#2F2E41"/>
<path d="M190.566 224.913L186.419 224.912L184.447 208.859L190.567 208.859L190.566 224.913Z" fill="#FFB6B6"/>
<path d="M190.712 229.254L177.96 229.254V229.092C177.96 227.771 178.483 226.504 179.414 225.569C180.345 224.635 181.607 224.11 182.924 224.11H182.924L185.253 222.337L189.599 224.111L190.712 224.111L190.712 229.254Z" fill="#2F2E41"/>
<path d="M186.456 150.459L181.705 183.348L182.998 187.675L181.301 190.74L183.793 213.808L182.781 216.043L185.607 217.793H191.359L191.664 193.425L193.084 189.847V187.876L195.976 173.017L196.643 196.148L197.567 197.936C201.006 205.767 205.639 208.331 208.914 214.185L214.665 211.058L214.545 208.727C215.7 208.139 212.81 206.423 212.532 205.154L212.029 202.881L208.674 195.906L208.546 193.45L209.464 176.743L209.032 154.246L201.488 148.456L186.456 150.459Z" fill="#2F2E41"/>
<path d="M193.923 110.567C198.049 110.567 201.395 107.21 201.395 103.068C201.395 98.9263 198.049 95.5687 193.923 95.5687C189.796 95.5687 186.451 98.9263 186.451 103.068C186.451 107.21 189.796 110.567 193.923 110.567Z" fill="#FFB6B6"/>
<path d="M182.882 164.647L182.773 164.609L184.22 159.891C184.03 159.283 183.994 158.638 184.114 158.012C184.235 157.387 184.508 156.802 184.91 156.309C184.676 155.902 183.712 153.983 185.282 152.353C185.188 151.878 184.716 149.064 186.364 147.689C186.364 147.689 189.562 123.364 191.355 116.939C191.407 116.469 190.987 112.632 193.399 112.481C194.672 112.402 196.581 112.28 199.446 112.095C199.816 112.068 200.033 112.696 200.362 113.717C200.584 114.408 199.44 115.352 199.717 115.336L199.736 115.335L199.755 115.34C202.428 116.059 204.773 117.68 206.395 119.93C208.017 122.18 208.818 124.922 208.663 127.695L207.811 142.229C207.94 142.814 210.653 159.388 209.944 161.167C209.541 162.176 210.227 162.805 210.728 163.264C210.986 163.501 211.173 163.671 211.147 163.858C211.136 163.91 211.113 163.958 211.079 163.998C211.045 164.038 211.002 164.068 210.953 164.087C210.5 164.315 210.751 165.874 211.015 166.803L211.042 166.898L210.954 166.943C210.853 166.995 202.745 163.263 192.895 163.263C189.182 163.263 187.036 166.101 182.882 164.647Z" fill="#3D2C42"/>
<path d="M199.844 107.679C199.767 107.639 199.698 107.583 199.643 107.515C199.589 107.446 199.549 107.367 199.527 107.282L199.42 106.847L199.748 107.189C199.923 107.044 200.057 106.855 200.136 106.641C200.215 106.426 200.236 106.195 200.198 105.97C200.16 105.745 200.063 105.534 199.917 105.359C199.772 105.183 199.583 105.05 199.369 104.971C199.225 104.923 199.077 104.887 198.927 104.863C198.77 104.838 198.615 104.8 198.464 104.751C198.111 104.598 197.806 104.35 197.583 104.035C197.359 103.72 197.226 103.35 197.198 102.964C197.149 102.285 197.224 101.602 197.419 100.949C194.122 101.457 190.76 101.356 187.5 100.65C186.997 100.543 186.516 100.353 186.076 100.088C185.271 99.6086 184.601 98.9316 184.128 98.1206C184.066 98.0112 184.04 97.8846 184.054 97.7594C184.068 97.6341 184.122 97.5168 184.208 97.4245C184.267 97.3601 184.339 97.3086 184.419 97.2732C184.499 97.2379 184.586 97.2193 184.673 97.2188L184.554 96.8945C184.517 96.7932 184.507 96.6838 184.525 96.5774C184.544 96.471 184.59 96.3714 184.66 96.2889C184.729 96.2063 184.819 96.1437 184.92 96.1074C185.022 96.0711 185.131 96.0624 185.237 96.0822L185.66 96.1616L185.619 95.8796C185.604 95.7745 185.616 95.6672 185.655 95.5684C185.694 95.4696 185.757 95.3826 185.84 95.316C185.922 95.2494 186.021 95.2056 186.125 95.1888C186.23 95.172 186.337 95.1829 186.436 95.2203C186.526 95.2545 186.623 95.2686 186.72 95.2616C186.817 95.2546 186.911 95.2266 186.996 95.1796C187.081 95.1326 187.154 95.0677 187.212 94.9894C187.269 94.9111 187.309 94.8212 187.329 94.7259L187.474 94.017L187.489 93.9794C188.204 92.7832 189.579 91.9135 191.26 91.5935C192.759 91.3084 194.29 91.4524 195.77 91.5917C196.398 91.6044 197.015 91.7608 197.574 92.0488C197.827 92.1952 198.034 92.4093 198.173 92.6671C198.312 92.9249 198.376 93.2164 198.36 93.509C199.818 93.0591 201.382 93.9554 202.155 95.0848C203.075 96.4279 203.223 98.1129 203.25 99.4308C203.314 102.546 202.674 105.095 201.35 107.007C201.16 107.331 200.873 107.587 200.53 107.738C200.442 107.768 200.351 107.782 200.259 107.782C200.114 107.783 199.972 107.747 199.844 107.679Z" fill="#2F2E41"/>
<path d="M200.113 137.206L194.628 133.686C191.136 136.111 186.416 144.652 186.416 144.652L174.471 155.728C173.973 155.813 173.507 156.029 173.119 156.353C172.731 156.677 172.434 157.098 172.26 157.574C172.085 158.05 172.039 158.563 172.125 159.062C172.211 159.562 172.426 160.029 172.75 160.418C173.073 160.808 173.493 161.104 173.967 161.279C174.441 161.454 174.952 161.5 175.45 161.413C175.947 161.326 176.413 161.109 176.8 160.784C177.188 160.459 177.483 160.037 177.656 159.561L194.304 147.921L200.113 137.206Z" fill="#FFB6B6"/>
<path d="M199.59 138.635L203.243 129.836L201.922 124.973C201.659 124.02 201.135 123.159 200.411 122.488C199.686 121.817 198.789 121.363 197.82 121.178C196.506 120.935 195.149 121.201 194.023 121.924C192.898 122.647 192.087 123.772 191.756 125.072C190.756 129.014 189.988 134.138 192.008 136.166L192.029 136.187L199.59 138.635Z" fill="#3D2C42"/>
<circle cx="114" cy="131" r="10" fill="#3D2C42"/>
</g>
<defs>
<clipPath id="clip0_521_6356">
<rect width="260" height="230" fill="white"/>
</clipPath>
</defs>
</svg>
